<?xml version="1.0" encoding="UTF-8"?>
<!--Generator: Apple Native CoreSVG 329.6-->
<!DOCTYPE svg
PUBLIC "-//W3C//DTD SVG 1.1//EN"
       "http://www.w3.org/Graphics/SVG/1.1/DTD/svg11.dtd">
<svg version="1.1" xmlns="http://www.w3.org/2000/svg" xmlns:xlink="http://www.w3.org/1999/xlink" viewBox="0 0 3300 2200">
 <!--glyph: "", point size: 100.0, font version: "20.0d10e1", template writer version: "138.0.0"-->
 <style>.monochrome-0 {-sfsymbols-motion-group:0;-sfsymbols-layer-tags:4108dac2302debe5}

.multicolor-0:tintColor {-sfsymbols-motion-group:0;-sfsymbols-layer-tags:4108dac2302debe5}

.hierarchical-0:primary {-sfsymbols-motion-group:0;-sfsymbols-layer-tags:4108dac2302debe5}

.SFSymbolsPreviewWireframe {fill:none;opacity:1.0;stroke:black;stroke-width:0.5}
</style>
 <g id="Notes">
  <rect height="2200" id="artboard" style="fill:white;opacity:1" width="3300" x="0" y="0"/>
  <line style="fill:none;stroke:black;opacity:1;stroke-width:0.5;" x1="263" x2="3036" y1="292" y2="292"/>
  <text style="stroke:none;fill:black;font-family:sans-serif;font-size:13;font-weight:bold;" transform="matrix(1 0 0 1 263 322)">Weight/Scale Variations</text>
  <text style="stroke:none;fill:black;font-family:sans-serif;font-size:13;text-anchor:middle;" transform="matrix(1 0 0 1 559.711 322)">Ultralight</text>
  <text style="stroke:none;fill:black;font-family:sans-serif;font-size:13;text-anchor:middle;" transform="matrix(1 0 0 1 856.422 322)">Thin</text>
  <text style="stroke:none;fill:black;font-family:sans-serif;font-size:13;text-anchor:middle;" transform="matrix(1 0 0 1 1153.13 322)">Light</text>
  <text style="stroke:none;fill:black;font-family:sans-serif;font-size:13;text-anchor:middle;" transform="matrix(1 0 0 1 1449.84 322)">Regular</text>
  <text style="stroke:none;fill:black;font-family:sans-serif;font-size:13;text-anchor:middle;" transform="matrix(1 0 0 1 1746.56 322)">Medium</text>
  <text style="stroke:none;fill:black;font-family:sans-serif;font-size:13;text-anchor:middle;" transform="matrix(1 0 0 1 2043.27 322)">Semibold</text>
  <text style="stroke:none;fill:black;font-family:sans-serif;font-size:13;text-anchor:middle;" transform="matrix(1 0 0 1 2339.98 322)">Bold</text>
  <text style="stroke:none;fill:black;font-family:sans-serif;font-size:13;text-anchor:middle;" transform="matrix(1 0 0 1 2636.69 322)">Heavy</text>
  <text style="stroke:none;fill:black;font-family:sans-serif;font-size:13;text-anchor:middle;" transform="matrix(1 0 0 1 2933.4 322)">Black</text>
  <line style="fill:none;stroke:black;opacity:1;stroke-width:0.5;" x1="263" x2="3036" y1="1903" y2="1903"/>
  <g transform="matrix(0.2 0 0 0.2 263 1933)">
   <path d="m46.2402 4.15039c21.7773 0 39.4531-17.627 39.4531-39.4043s-17.6758-39.4043-39.4531-39.4043c-21.7285 0-39.4043 17.627-39.4043 39.4043s17.6758 39.4043 39.4043 39.4043Zm0-7.42188c-17.6758 0-31.9336-14.3066-31.9336-31.9824s14.2578-31.9824 31.9336-31.9824 31.9824 14.3066 31.9824 31.9824-14.3066 31.9824-31.9824 31.9824Zm-17.9688-31.9824c0 2.14844 1.51367 3.61328 3.75977 3.61328h10.498v10.5957c0 2.19727 1.46484 3.71094 3.61328 3.71094 2.24609 0 3.71094-1.51367 3.71094-3.71094v-10.5957h10.5957c2.19727 0 3.71094-1.46484 3.71094-3.61328 0-2.19727-1.51367-3.71094-3.71094-3.71094h-10.5957v-10.5469c0-2.24609-1.46484-3.75977-3.71094-3.75977-2.14844 0-3.61328 1.51367-3.61328 3.75977v10.5469h-10.498c-2.24609 0-3.75977 1.51367-3.75977 3.71094Z"/>
  </g>
  <g transform="matrix(0.2 0 0 0.2 281.506 1933)">
   <path d="m58.5449 14.5508c27.4902 0 49.8047-22.3145 49.8047-49.8047s-22.3145-49.8047-49.8047-49.8047-49.8047 22.3145-49.8047 49.8047 22.3145 49.8047 49.8047 49.8047Zm0-8.30078c-22.9492 0-41.5039-18.5547-41.5039-41.5039s18.5547-41.5039 41.5039-41.5039 41.5039 18.5547 41.5039 41.5039-18.5547 41.5039-41.5039 41.5039Zm-22.6562-41.5039c0 2.39258 1.66016 4.00391 4.15039 4.00391h14.3555v14.4043c0 2.44141 1.66016 4.15039 4.05273 4.15039 2.44141 0 4.15039-1.66016 4.15039-4.15039v-14.4043h14.4043c2.44141 0 4.15039-1.61133 4.15039-4.00391 0-2.44141-1.70898-4.15039-4.15039-4.15039h-14.4043v-14.3555c0-2.49023-1.70898-4.19922-4.15039-4.19922-2.39258 0-4.05273 1.70898-4.05273 4.19922v14.3555h-14.3555c-2.49023 0-4.15039 1.70898-4.15039 4.15039Z"/>
  </g>
  <g transform="matrix(0.2 0 0 0.2 304.924 1933)">
   <path d="m74.8535 28.3203c35.1074 0 63.623-28.4668 63.623-63.5742s-28.5156-63.623-63.623-63.623-63.5742 28.5156-63.5742 63.623 28.4668 63.5742 63.5742 63.5742Zm0-9.08203c-30.127 0-54.4922-24.3652-54.4922-54.4922s24.3652-54.4922 54.4922-54.4922 54.4922 24.3652 54.4922 54.4922-24.3652 54.4922-54.4922 54.4922Zm-28.8574-54.4922c0 2.58789 1.85547 4.39453 4.58984 4.39453h19.7266v19.7754c0 2.68555 1.85547 4.58984 4.44336 4.58984 2.68555 0 4.54102-1.85547 4.54102-4.58984v-19.7754h19.7754c2.68555 0 4.58984-1.80664 4.58984-4.39453 0-2.73438-1.85547-4.58984-4.58984-4.58984h-19.7754v-19.7266c0-2.73438-1.85547-4.63867-4.54102-4.63867-2.58789 0-4.44336 1.9043-4.44336 4.63867v19.7266h-19.7266c-2.73438 0-4.58984 1.85547-4.58984 4.58984Z"/>
  </g>
  <text style="stroke:none;fill:black;font-family:sans-serif;font-size:13;font-weight:bold;" transform="matrix(1 0 0 1 263 1953)">Design Variations</text>
  <text style="stroke:none;fill:black;font-family:sans-serif;font-size:13;" transform="matrix(1 0 0 1 263 1971)">Symbols are supported in up to nine weights and three scales.</text>
  <text style="stroke:none;fill:black;font-family:sans-serif;font-size:13;" transform="matrix(1 0 0 1 263 1989)">For optimal layout with text and other symbols, vertically align</text>
  <text style="stroke:none;fill:black;font-family:sans-serif;font-size:13;" transform="matrix(1 0 0 1 263 2007)">symbols with the adjacent text.</text>
  <line style="fill:none;stroke:#00AEEF;stroke-width:0.5;opacity:1.0;" x1="776" x2="776" y1="1919" y2="1933"/>
  <g transform="matrix(0.2 0 0 0.2 776 1933)">
   <path d="m16.5527 0.78125c2.58789 0 3.85742-0.976562 4.78516-3.71094l6.29883-17.2363h28.8086l6.29883 17.2363c0.927734 2.73438 2.19727 3.71094 4.73633 3.71094 2.58789 0 4.24805-1.5625 4.24805-4.00391 0-0.830078-0.146484-1.61133-0.537109-2.63672l-22.9004-60.9863c-1.12305-2.97852-3.125-4.49219-6.25-4.49219-3.02734 0-5.07812 1.46484-6.15234 4.44336l-22.9004 61.084c-0.390625 1.02539-0.537109 1.80664-0.537109 2.63672 0 2.44141 1.5625 3.95508 4.10156 3.95508Zm13.4766-28.3691 11.8652-32.8613h0.244141l11.8652 32.8613Z"/>
  </g>
  <line style="fill:none;stroke:#00AEEF;stroke-width:0.5;opacity:1.0;" x1="792.836" x2="792.836" y1="1919" y2="1933"/>
  <text style="stroke:none;fill:black;font-family:sans-serif;font-size:13;font-weight:bold;" transform="matrix(1 0 0 1 776 1953)">Margins</text>
  <text style="stroke:none;fill:black;font-family:sans-serif;font-size:13;" transform="matrix(1 0 0 1 776 1971)">Leading and trailing margins on the left and right side of each symbol</text>
  <text style="stroke:none;fill:black;font-family:sans-serif;font-size:13;" transform="matrix(1 0 0 1 776 1989)">can be adjusted by modifying the x-location of the margin guidelines.</text>
  <text style="stroke:none;fill:black;font-family:sans-serif;font-size:13;" transform="matrix(1 0 0 1 776 2007)">Modifications are automatically applied proportionally to all</text>
  <text style="stroke:none;fill:black;font-family:sans-serif;font-size:13;" transform="matrix(1 0 0 1 776 2025)">scales and weights.</text>
  <g transform="matrix(0.2 0 0 0.2 1289 1933)">
   <path d="m14.209 9.32617 8.49609 8.54492c4.29688 4.3457 9.22852 4.05273 13.8672-1.07422l53.4668-58.9355-4.83398-4.88281-53.0762 58.3984c-1.75781 2.00195-3.41797 2.49023-5.76172 0.146484l-5.85938-5.81055c-2.34375-2.29492-1.80664-4.00391 0.195312-5.81055l57.373-54.0039-4.88281-4.83398-57.959 54.4434c-4.93164 4.58984-5.32227 9.47266-1.02539 13.8184Zm32.0801-90.9668c-2.09961 2.05078-2.24609 4.93164-1.07422 6.88477 1.17188 1.80664 3.4668 2.97852 6.68945 2.14844 7.32422-1.70898 14.9414-2.00195 22.0703 2.68555l-2.92969 7.27539c-1.70898 4.15039-0.830078 7.08008 1.85547 9.81445l11.4746 11.5723c2.44141 2.44141 4.49219 2.53906 7.32422 2.05078l5.32227-0.976562 3.32031 3.36914-0.195312 2.7832c-0.195312 2.49023 0.439453 4.39453 2.88086 6.78711l3.80859 3.71094c2.39258 2.39258 5.46875 2.53906 7.8125 0.195312l14.5508-14.5996c2.34375-2.34375 2.24609-5.32227-0.146484-7.71484l-3.85742-3.80859c-2.39258-2.39258-4.24805-3.17383-6.64062-2.97852l-2.88086 0.244141-3.22266-3.17383 1.2207-5.61523c0.634766-2.83203-0.146484-5.0293-3.07617-7.95898l-10.9863-10.9375c-16.6992-16.6016-38.8672-16.2109-53.3203-1.75781Zm7.4707 1.85547c12.1582-8.88672 28.6133-7.37305 39.7461 3.75977l12.1582 12.0605c1.17188 1.17188 1.36719 2.09961 1.02539 3.80859l-1.61133 7.42188 7.51953 7.42188 4.93164-0.292969c1.26953-0.0488281 1.66016 0.0488281 2.63672 1.02539l2.88086 2.88086-12.207 12.207-2.88086-2.88086c-0.976562-0.976562-1.12305-1.36719-1.07422-2.68555l0.341797-4.88281-7.4707-7.42188-7.61719 1.26953c-1.61133 0.341797-2.34375 0.195312-3.56445-0.976562l-10.0098-10.0098c-1.26953-1.17188-1.41602-2.00195-0.634766-3.85742l4.39453-10.4492c-7.8125-7.27539-17.9688-10.4004-28.125-7.42188-0.78125 0.195312-1.07422-0.439453-0.439453-0.976562Z"/>
  </g>
  <text style="stroke:none;fill:black;font-family:sans-serif;font-size:13;font-weight:bold;" transform="matrix(1 0 0 1 1289 1953)">Exporting</text>
  <text style="stroke:none;fill:black;font-family:sans-serif;font-size:13;" transform="matrix(1 0 0 1 1289 1971)">Symbols should be outlined when exporting to ensure the</text>
  <text style="stroke:none;fill:black;font-family:sans-serif;font-size:13;" transform="matrix(1 0 0 1 1289 1989)">design is preserved when submitting to Xcode.</text>
  <text id="template-version" style="stroke:none;fill:black;font-family:sans-serif;font-size:13;text-anchor:end;" transform="matrix(1 0 0 1 3036 1933)">Template v.6.0</text>
  <text style="stroke:none;fill:black;font-family:sans-serif;font-size:13;text-anchor:end;" transform="matrix(1 0 0 1 3036 1951)">Requires Xcode 16 or greater</text>
  <text id="descriptive-name" style="stroke:none;fill:black;font-family:sans-serif;font-size:13;text-anchor:end;" transform="matrix(1 0 0 1 3036 1969)">Generated from camper.side</text>
  <text style="stroke:none;fill:black;font-family:sans-serif;font-size:13;text-anchor:end;" transform="matrix(1 0 0 1 3036 1987)">Typeset at 100.0 points</text>
  <text style="stroke:none;fill:black;font-family:sans-serif;font-size:13;" transform="matrix(1 0 0 1 263 726)">Small</text>
  <text style="stroke:none;fill:black;font-family:sans-serif;font-size:13;" transform="matrix(1 0 0 1 263 1156)">Medium</text>
  <text style="stroke:none;fill:black;font-family:sans-serif;font-size:13;" transform="matrix(1 0 0 1 263 1586)">Large</text>
 </g>
 <g id="Guides">
  <g id="H-reference" style="fill:#27AAE1;stroke:none;" transform="matrix(1 0 0 1 339 696)">
   <path d="M0.993654 0L3.63775 0L29.3281-67.1323L30.0303-67.1323L30.0303-70.459L28.1226-70.459ZM11.6885-24.4799L46.9815-24.4799L46.2315-26.7285L12.4385-26.7285ZM55.1196 0L57.7637 0L30.6382-70.459L29.4326-70.459L29.4326-67.1323Z"/>
  </g>
  <line id="Baseline-S" style="fill:none;stroke:#27AAE1;opacity:1;stroke-width:0.5;" x1="263" x2="3036" y1="696" y2="696"/>
  <line id="Capline-S" style="fill:none;stroke:#27AAE1;opacity:1;stroke-width:0.5;" x1="263" x2="3036" y1="625.541" y2="625.541"/>
  <g id="H-reference" style="fill:#27AAE1;stroke:none;" transform="matrix(1 0 0 1 339 1126)">
   <path d="M0.993654 0L3.63775 0L29.3281-67.1323L30.0303-67.1323L30.0303-70.459L28.1226-70.459ZM11.6885-24.4799L46.9815-24.4799L46.2315-26.7285L12.4385-26.7285ZM55.1196 0L57.7637 0L30.6382-70.459L29.4326-70.459L29.4326-67.1323Z"/>
  </g>
  <line id="Baseline-M" style="fill:none;stroke:#27AAE1;opacity:1;stroke-width:0.5;" x1="263" x2="3036" y1="1126" y2="1126"/>
  <line id="Capline-M" style="fill:none;stroke:#27AAE1;opacity:1;stroke-width:0.5;" x1="263" x2="3036" y1="1055.54" y2="1055.54"/>
  <g id="H-reference" style="fill:#27AAE1;stroke:none;" transform="matrix(1 0 0 1 339 1556)">
   <path d="M0.993654 0L3.63775 0L29.3281-67.1323L30.0303-67.1323L30.0303-70.459L28.1226-70.459ZM11.6885-24.4799L46.9815-24.4799L46.2315-26.7285L12.4385-26.7285ZM55.1196 0L57.7637 0L30.6382-70.459L29.4326-70.459L29.4326-67.1323Z"/>
  </g>
  <line id="Baseline-L" style="fill:none;stroke:#27AAE1;opacity:1;stroke-width:0.5;" x1="263" x2="3036" y1="1556" y2="1556"/>
  <line id="Capline-L" style="fill:none;stroke:#27AAE1;opacity:1;stroke-width:0.5;" x1="263" x2="3036" y1="1485.54" y2="1485.54"/>
  <line id="right-margin-Black-S" style="fill:none;stroke:#00AEEF;stroke-width:0.5;opacity:1.0;" x1="2995.97" x2="2995.97" y1="600.785" y2="720.121"/>
  <line id="left-margin-Black-S" style="fill:none;stroke:#00AEEF;stroke-width:0.5;opacity:1.0;" x1="2870.83" x2="2870.83" y1="600.785" y2="720.121"/>
  <line id="right-margin-Regular-S" style="fill:none;stroke:#00AEEF;stroke-width:0.5;opacity:1.0;" x1="1507.88" x2="1507.88" y1="600.785" y2="720.121"/>
  <line id="left-margin-Regular-S" style="fill:none;stroke:#00AEEF;stroke-width:0.5;opacity:1.0;" x1="1391.81" x2="1391.81" y1="600.785" y2="720.121"/>
  <line id="right-margin-Ultralight-S" style="fill:none;stroke:#00AEEF;stroke-width:0.5;opacity:1.0;" x1="614.497" x2="614.497" y1="600.785" y2="720.121"/>
  <line id="left-margin-Ultralight-S" style="fill:none;stroke:#00AEEF;stroke-width:0.5;opacity:1.0;" x1="504.926" x2="504.926" y1="600.785" y2="720.121"/>
 </g>
 <g id="Symbols">
  <g id="Black-S" transform="matrix(1 0 0 1 2870.83 696)">
   <path class="SFSymbolsPreviewWireframe" d="M26.9152-66.7742C22.7306-66.7742 19.5666-65.8881 17.4442-64.0725C15.3218-62.2568 14.27-59.5199 14.27-55.9228L14.27-23.9076C14.27-20.3105 15.3218-17.581 17.4442-15.7654C19.5666-13.9497 22.7306-13.0636 26.9152-13.0636L35.2862-13.0636L35.2782-13.3074C35.149-17.4448 36.6946-20.5145 39.0873-22.5716C41.4799-24.6288 44.7336-25.6647 47.9898-25.6647C51.246-25.6647 54.4979-24.6293 56.9072-22.5716C59.3164-20.514 60.8944-17.4374 60.7974-13.3L60.7894-13.0638L98.6659-13.0638C102.851-13.0638 106.015-13.9499 108.137-15.7656C110.259-17.5812 111.304-20.3108 111.304-23.9078L111.304-31.5259C111.304-33.7083 110.901-35.6892 109.968-38.0736L109.968-38.0816L102.445-57.8282C100.368-63.3084 96.1088-66.775 89.3869-66.775ZM82.2323-58.2923L88.2116-58.2923C91.9721-58.2923 95.0177-55.2467 95.0177-51.4862L95.0177-15.5142L75.8617-15.5142L75.8617-51.9217C75.8617-55.4431 78.7109-58.2923 82.2323-58.2923ZM31.3416-54.306L65.9109-54.306C67.8374-54.306 69.3804-52.7631 69.3804-50.8366L69.3804-44.2224C69.3804-42.2959 67.8374-40.7603 65.9109-40.7603L31.3416-40.7603C29.415-40.7603 27.8794-42.2959 27.8794-44.2224L27.8794-50.8366C27.8794-52.7631 29.415-54.306 31.3416-54.306ZM47.8428-22.2171C52.8927-22.2171 56.9742-18.1357 56.9742-13.0858C56.9742-8.03581 52.8927-3.94696 47.8428-3.94696C42.7929-3.94696 38.704-8.03581 38.704-13.0858C38.704-18.1357 42.7929-22.2171 47.8428-22.2171Z"/>
   <path class="monochrome-0 multicolor-0:tintColor hierarchical-0:primary SFSymbolsPreviewWireframe" d="M47.8428-22.8446C42.4559-22.8446 38.0766-18.4727 38.0766-13.0858C38.0766-7.69879 42.4559-3.31949 47.8428-3.31949C53.2298-3.31949 57.6017-7.69879 57.6017-13.0858C57.6017-18.4727 53.2298-22.8446 47.8428-22.8446ZM31.3416-54.9335C29.0803-54.9335 27.252-53.0978 27.252-50.8366L27.252-44.2224C27.252-41.9612 29.0803-40.1328 31.3416-40.1328L65.9109-40.1328C68.1721-40.1328 70.0005-41.9612 70.0005-44.2224L70.0005-50.8366C70.0005-53.0978 68.1721-54.9335 65.9109-54.9335ZM82.2323-58.8681C78.3992-58.8681 75.2859-55.7548 75.2859-51.9217L75.2859-14.9384L95.5935-14.9384L95.5935-51.4862C95.5935-55.5585 92.2839-58.868 88.2116-58.8681ZM26.9152-66.3018L89.3881-66.3018C95.9521-66.3018 99.9851-63.0033 102.011-57.6576L109.541-37.9111C110.461-35.5625 110.84-33.6543 110.84-31.5257L110.84-23.9076C110.84-20.4002 109.841-17.8351 107.835-16.1197C105.83-14.4043 102.786-13.5286 98.6671-13.5286L61.2188-13.5286C61.2453-17.6578 59.6655-20.8291 57.2104-22.9258C54.7026-25.0676 51.3452-26.1295 47.9905-26.1295C44.6357-26.1295 41.277-25.0607 38.7852-22.9184C36.3461-20.8213 34.7996-17.6577 34.8581-13.5286L26.9152-13.5286C22.7962-13.5286 19.7521-14.4042 17.7469-16.1197C15.7416-17.8351 14.735-20.4002 14.735-23.9076L14.735-55.9228C14.735-59.4303 15.7416-62.0027 17.7469-63.7181C19.7521-65.4336 22.7962-66.3018 26.9152-66.3018Z"/>
  </g>
  <g id="Regular-S" transform="matrix(1 0 0 1 1391.81 696)">
   <path class="SFSymbolsPreviewWireframe" d="M23.0352-66.7742C18.8506-66.7742 15.6866-65.8881 13.5642-64.0725C11.4418-62.2568 10.39-59.5199 10.39-55.9228L10.39-23.9076C10.39-20.3105 11.4418-17.581 13.5642-15.7654C15.6866-13.9497 18.8506-13.0636 23.0352-13.0636L31.4062-13.0636L31.3982-13.3074C31.269-17.4448 32.8146-20.5145 35.2073-22.5716C37.5999-24.6288 40.8537-25.6647 44.1098-25.6647C47.366-25.6647 50.6179-24.6293 53.0272-22.5716C55.4364-20.514 57.0144-17.4374 56.9174-13.3L56.9094-13.0638L94.7859-13.0638C98.9706-13.0638 102.135-13.9499 104.257-15.7656C106.379-17.5812 107.424-20.3108 107.424-23.9078L107.424-31.5259C107.424-33.7083 107.021-35.6892 106.088-38.0736L106.088-38.0816L98.5654-57.8282C96.4884-63.3084 92.2288-66.775 85.5069-66.775ZM78.3523-58.2923L84.3316-58.2923C88.0921-58.2923 91.1377-55.2467 91.1377-51.4862L91.1377-15.5142L71.9817-15.5142L71.9817-51.9217C71.9817-55.4431 74.831-58.2923 78.3523-58.2923ZM27.4616-54.306L62.0309-54.306C63.9574-54.306 65.5004-52.7631 65.5004-50.8366L65.5004-44.2224C65.5004-42.2959 63.9574-40.7603 62.0309-40.7603L27.4616-40.7603C25.535-40.7603 23.9994-42.2959 23.9994-44.2224L23.9994-50.8366C23.9994-52.7631 25.535-54.306 27.4616-54.306ZM43.9628-22.2171C49.0127-22.2171 53.0942-18.1357 53.0942-13.0858C53.0942-8.03581 49.0127-3.94696 43.9628-3.94696C38.9129-3.94696 34.8241-8.03581 34.8241-13.0858C34.8241-18.1357 38.9129-22.2171 43.9628-22.2171Z"/>
   <path class="monochrome-0 multicolor-0:tintColor hierarchical-0:primary SFSymbolsPreviewWireframe" d="M43.9628-22.8446C38.5759-22.8446 34.1966-18.4727 34.1966-13.0858C34.1966-7.69879 38.5759-3.31949 43.9628-3.31949C49.3498-3.31949 53.7217-7.69879 53.7217-13.0858C53.7217-18.4727 49.3498-22.8446 43.9628-22.8446ZM27.4616-54.9335C25.2004-54.9335 23.372-53.0978 23.372-50.8366L23.372-44.2224C23.372-41.9612 25.2004-40.1328 27.4616-40.1328L62.0309-40.1328C64.2922-40.1328 66.1205-41.9612 66.1205-44.2224L66.1205-50.8366C66.1205-53.0978 64.2922-54.9335 62.0309-54.9335ZM78.3523-58.8681C74.5192-58.8681 71.4059-55.7548 71.4059-51.9217L71.4059-14.9384L91.7135-14.9384L91.7135-51.4862C91.7135-55.5585 88.4039-58.868 84.3316-58.8681ZM23.0352-66.3018L85.5081-66.3018C92.0721-66.3018 96.1051-63.0033 98.1311-57.6576L105.661-37.9111C106.581-35.5625 106.96-33.6543 106.96-31.5257L106.96-23.9076C106.96-20.4002 105.961-17.8351 103.955-16.1197C101.95-14.4043 98.9062-13.5286 94.7871-13.5286L57.3388-13.5286C57.3653-17.6578 55.7855-20.8291 53.3304-22.9258C50.8226-25.0676 47.4652-26.1295 44.1105-26.1295C40.7558-26.1295 37.397-25.0607 34.9052-22.9184C32.4661-20.8213 30.9196-17.6577 30.9781-13.5286L23.0352-13.5286C18.9162-13.5286 15.8721-14.4042 13.8669-16.1197C11.8616-17.8351 10.855-20.4002 10.855-23.9076L10.855-55.9228C10.855-59.4303 11.8616-62.0027 13.8669-63.7181C15.8721-65.4336 18.9162-66.3018 23.0352-66.3018Z"/>
  </g>
  <g id="Ultralight-S" transform="matrix(1 0 0 1 504.926 696)">
   <path class="SFSymbolsPreviewWireframe" d="M18.6471-66.7744C14.4625-66.7744 11.2985-65.8883 9.17611-64.0727C7.05372-62.257 6.00191-59.5201 6.00191-55.9231L6.00191-23.9078C6.00191-20.3108 7.05372-17.5812 9.17611-15.7656C11.2985-13.9499 14.4625-13.0638 18.6471-13.0638L27.0181-13.0638L27.0101-13.3076C26.8809-17.445 28.4265-20.5147 30.8192-22.5719C33.2118-24.629 36.4656-25.6649 39.7217-25.6649C42.9779-25.6649 46.2298-24.6295 48.6391-22.5719C51.0483-20.5142 52.6263-17.4376 52.5293-13.3002L52.5213-13.064L90.3978-13.064C94.5825-13.064 97.7465-13.9501 99.8687-15.7658C101.991-17.5814 103.036-20.311 103.036-23.908L103.036-31.5261C103.036-33.7085 102.633-35.6894 101.699-38.0738L101.699-38.0818L94.1773-57.8284C92.1003-63.3086 87.8407-66.7752 81.1188-66.7752ZM73.9642-58.2925L79.9435-58.2925C83.7041-58.2925 86.7496-55.2469 86.7496-51.4864L86.7496-15.5144L67.5936-15.5144L67.5936-51.9219C67.5936-55.4433 70.4429-58.2925 73.9642-58.2925ZM23.0735-54.3062L57.6429-54.3062C59.5694-54.3062 61.1123-52.7633 61.1123-50.8368L61.1123-44.2226C61.1123-42.2961 59.5694-40.7605 57.6429-40.7605L23.0735-40.7605C21.1469-40.7605 19.6114-42.2961 19.6114-44.2226L19.6114-50.8368C19.6114-52.7633 21.1469-54.3062 23.0735-54.3062ZM39.5747-22.2173C44.6246-22.2173 48.7061-18.1359 48.7061-13.086C48.7061-8.03602 44.6246-3.94717 39.5747-3.94717C34.5248-3.94717 30.436-8.03602 30.436-13.086C30.436-18.1359 34.5248-22.2173 39.5747-22.2173Z"/>
   <path class="monochrome-0 multicolor-0:tintColor hierarchical-0:primary SFSymbolsPreviewWireframe" d="M39.5747-22.8448C34.1878-22.8448 29.8085-18.4729 29.8085-13.086C29.8085-7.699 34.1878-3.3197 39.5747-3.3197C44.9617-3.3197 49.3336-7.699 49.3336-13.086C49.3336-18.4729 44.9617-22.8448 39.5747-22.8448ZM23.0735-54.9337C20.8123-54.9337 18.9839-53.098 18.9839-50.8368L18.9839-44.2226C18.9839-41.9614 20.8123-40.133 23.0735-40.133L57.6429-40.133C59.9041-40.133 61.7324-41.9614 61.7324-44.2226L61.7324-50.8368C61.7324-53.098 59.9041-54.9337 57.6429-54.9337ZM73.9642-58.8683C70.1311-58.8683 67.0179-55.755 67.0179-51.9219L67.0179-14.9386L87.3254-14.9386L87.3254-51.4864C87.3254-55.5587 84.0158-58.8683 79.9435-58.8683ZM18.6471-66.302L81.12-66.302C87.684-66.302 91.717-63.0035 93.743-57.6578L101.273-37.9113C102.193-35.5627 102.572-33.6545 102.572-31.5259L102.572-23.9078C102.572-20.4004 101.573-17.8354 99.5674-16.1199C97.5622-14.4045 94.5182-13.5288 90.399-13.5288L52.9507-13.5288C52.9772-17.658 51.3974-20.8293 48.9423-22.926C46.4345-25.0679 43.0771-26.1298 39.7224-26.1298C36.3677-26.1298 33.0089-25.0609 30.5171-22.9186C28.078-20.8215 26.5315-17.6579 26.59-13.5288L18.6471-13.5288C14.5281-13.5288 11.484-14.4045 9.47878-16.1199C7.47355-17.8354 6.46695-20.4004 6.46695-23.9078L6.46695-55.9231C6.46695-59.4305 7.47355-62.0029 9.47878-63.7183C11.484-65.4338 14.5281-66.302 18.6471-66.302Z"/>
  </g>
 </g>
</svg>
